<svg xmlns="http://www.w3.org/2000/svg" width="20" height="20" fill="none" viewBox="0 0 31 32"><g clipPath="url(#clip0_1239_10458)"><path fill="#83859C" d="M15.0768 5.89062C18.5787 5.89062 21.6898 7.47006 23.9051 9.42519C25.0171 10.4065 25.9331 11.5085 26.5789 12.6054C27.2135 13.6822 27.6419 14.8495 27.6419 15.9427C27.6419 17.0359 27.2147 18.2032 26.5789 19.28C25.9331 20.3769 25.0171 21.4789 23.9051 22.4602C21.6898 24.4154 18.5775 25.9948 15.0768 25.9948C11.5749 25.9948 8.46381 24.4154 6.24858 22.4602C5.13657 21.4789 4.22057 20.3769 3.57473 19.28C2.93893 18.2032 2.51172 17.0359 2.51172 15.9427C2.51172 14.8495 2.93893 13.6822 3.57473 12.6054C4.22057 11.5085 5.13657 10.4065 6.24858 9.42519C8.46381 7.47006 11.5762 5.89062 15.0768 5.89062ZM15.0768 8.40365C12.3326 8.40365 9.78943 9.65136 7.9122 11.3087C6.97736 12.133 6.23853 13.0339 5.73969 13.8808C5.22955 14.7478 5.02474 15.4652 5.02474 15.9427C5.02474 16.4202 5.22955 17.1376 5.73969 18.0046C6.23853 18.8515 6.97736 19.7512 7.9122 20.5767C9.78943 22.2341 12.3326 23.4818 15.0768 23.4818C17.821 23.4818 20.3642 22.2341 22.2414 20.5767C23.1763 19.7512 23.9151 18.8515 24.414 18.0046C24.9241 17.1376 25.1289 16.4202 25.1289 15.9427C25.1289 15.4652 24.9241 14.7478 24.414 13.8808C23.9151 13.0339 23.1763 12.1342 22.2414 11.3087C20.3642 9.65136 17.821 8.40365 15.0768 8.40365ZM15.0768 12.1732C15.1874 12.1732 15.2967 12.1782 15.4048 12.187C15.132 12.6655 15.024 13.2205 15.0973 13.7664C15.1707 14.3123 15.4215 14.819 15.811 15.2085C16.2005 15.5981 16.7072 15.8488 17.2531 15.9222C17.7991 15.9956 18.354 15.8876 18.8325 15.6148C18.8986 16.3714 18.7346 17.1303 18.3619 17.7922C17.9893 18.454 17.4254 18.9878 16.7442 19.3236C16.063 19.6595 15.2962 19.7818 14.5443 19.6744C13.7925 19.567 13.0906 19.235 12.5306 18.7219C11.9706 18.2087 11.5787 17.5384 11.4063 16.7988C11.2338 16.0591 11.2888 15.2846 11.564 14.5767C11.8392 13.8688 12.3219 13.2606 12.9487 12.8317C13.5755 12.4028 14.3173 12.1733 15.0768 12.1732Z"/></g><defs><clipPath id="clip0_1239_10458"><rect width="30.156" height="30.156" fill="#fff" transform="translate(0 0.863281)"/></clipPath></defs></svg>